name C:\Users\u0101727\Documents\MyRepositories\upper-imu-dc\Results\main_tracking\Case_40\FLX01_angularVelocities_groundFrame.mot
datacolumns 4
datarows 94
range 5.01000000 5.94000000
endheader 
time	radius_imu_x	radius_imu_y	radius_imu_z	
          5.01000000	          0.73562519	          0.16052000	         -1.26260820	
          5.02000000	          0.65601086	          0.30906222	         -1.22906232	
          5.03000000	          0.60855142	          0.45447756	         -1.19226383	
          5.04000000	          0.59108777	          0.59324541	         -1.14832260	
          5.05000000	          0.67229111	          0.71571806	         -1.10151250	
          5.06000000	          0.76537503	          0.83484362	         -1.04686977	
          5.07000000	          0.88847441	          0.94798118	         -0.98080307	
          5.08000000	          1.02045079	          1.06266207	         -0.91142685	
          5.09000000	          1.13892856	          1.18750991	         -0.84753724	
          5.10000000	          1.22463658	          1.33047804	         -0.79736082	
          5.11000000	          1.26837917	          1.49542214	         -0.76561295	
          5.12000000	          1.27203546	          1.68108550	         -0.75290801	
          5.13000000	          1.24478690	          1.88240435	         -0.75690844	
          5.14000000	          1.19695493	          2.09332056	         -0.77444600	
          5.15000000	          1.13501100	          2.30941744	         -0.80335034	
          5.16000000	          1.06002196	          2.52902264	         -0.84309160	
          5.17000000	          0.96935809	          2.75253255	         -0.89420645	
          5.18000000	          0.85989225	          2.98065607	         -0.95710293	
          5.19000000	          0.73133717	          3.21226844	         -1.03074697	
          5.20000000	          0.58883152	          3.44246096	         -1.11160994	
          5.21000000	          0.44350147	          3.66168110	         -1.19341561	
          5.22000000	          0.31032666	          3.85659436	         -1.26798940	
          5.23000000	          0.20427822	          4.01232381	         -1.32687415	
          5.24000000	          0.13636886	          4.11518337	         -1.36310212	
          5.25000000	          0.11078329	          4.15515638	         -1.37266858	
          5.26000000	          0.12384364	          4.12750750	         -1.35537963	
          5.27000000	          0.16525816	          4.03299410	         -1.31482275	
          5.28000000	          0.22131396	          3.87659737	         -1.25747006	
          5.29000000	          0.27872896	          3.66541667	         -1.19128595	
          5.30000000	          0.32763427	          3.40676103	         -1.12439084	
          5.31000000	          0.36302163	          3.10703500	         -1.06411463	
          5.32000000	          0.38465769	          2.77158439	         -1.01664373	
          5.33000000	          0.39721250	          2.40413488	         -0.98660426	
          5.34000000	          0.40791173	          2.01009632	         -0.98055473	
          5.35000000	          0.44406995	          1.57991417	         -0.99257398	
          5.36000000	          0.44850694	          1.13825175	         -1.01591890	
          5.37000000	          0.51997129	          0.67280137	         -1.04020598	
          5.38000000	          0.58212739	          0.17636672	         -1.05314091	
          5.39000000	          0.63346936	         -0.29262412	         -1.07250533	
          5.40000000	          0.66877986	         -0.70135458	         -1.10722431	
          5.41000000	          0.70318012	         -1.05244524	         -1.14388292	
          5.42000000	          0.73460590	         -1.33591943	         -1.17682532	
          5.43000000	          0.76448648	         -1.55460926	         -1.19784804	
          5.44000000	          0.79240558	         -1.71454255	         -1.20193799	
          5.45000000	          0.81690489	         -1.82359977	         -1.18733340	
          5.46000000	          0.83638775	         -1.89042461	         -1.15488698	
          5.47000000	          0.85019537	         -1.92427939	         -1.10686091	
          5.48000000	          0.85973952	         -1.93583613	         -1.04540065	
          5.49000000	          0.86892751	         -1.93737785	         -0.97191394	
          5.50000000	          0.88394964	         -1.94200382	         -0.88757385	
          5.51000000	          0.91095455	         -1.95895791	         -0.79677868	
          5.52000000	          0.95443160	         -1.98946699	         -0.70963182	
          5.53000000	          0.99662988	         -1.99073630	         -0.66972653	
          5.54000000	          1.03211882	         -1.98323501	         -0.66410867	
          5.55000000	          1.02383085	         -1.90709528	         -0.72435367	
          5.56000000	          0.99195110	         -1.83560752	         -0.80201576	
          5.57000000	          0.96531505	         -1.81788487	         -0.84520445	
          5.58000000	          0.93252876	         -1.81711024	         -0.86756782	
          5.59000000	          0.87440818	         -1.78674766	         -0.89415626	
          5.60000000	          0.78424371	         -1.70522373	         -0.93445264	
          5.61000000	          0.66246966	         -1.56414150	         -0.99073443	
          5.62000000	          0.51692631	         -1.36862648	         -1.05944257	
          5.63000000	          0.36173026	         -1.13524946	         -1.13365772	
          5.64000000	          0.21480692	         -0.88730567	         -1.20703893	
          5.65000000	          0.09181895	         -0.64292998	         -1.28003482	
          5.66000000	         -0.01013367	         -0.37757851	         -1.38251508	
          5.67000000	         -0.14134265	         -0.00381736	         -1.55704004	
          5.68000000	         -0.25499166	          0.32061554	         -1.71821167	
          5.69000000	         -0.25844991	          0.37041900	         -1.75449630	
          5.70000000	         -0.18030428	          0.21922434	         -1.70358252	
          5.71000000	         -0.06340903	         -0.03593416	         -1.61347993	
          5.72000000	          0.06374641	         -0.33215336	         -1.51160420	
          5.73000000	          0.17985652	         -0.61717933	         -1.41729053	
          5.74000000	          0.27146293	         -0.85181907	         -1.34299753	
          5.75000000	          0.33235605	         -1.01058946	         -1.29521575	
          5.76000000	          0.36297303	         -1.08369029	         -1.27427143	
          5.77000000	          0.36942072	         -1.07852689	         -1.27412239	
          5.78000000	          0.36221517	         -1.02020680	         -1.28277391	
          5.79000000	          0.35446072	         -0.94917009	         -1.28418933	
          5.80000000	          0.35873586	         -0.91033820	         -1.26451039	
          5.81000000	          0.38065276	         -0.92536128	         -1.22266188	
          5.82000000	          0.40476551	         -0.90678232	         -1.21135287	
          5.83000000	          0.37146339	         -0.66700562	         -1.30146722	
          5.84000000	          0.34945673	         -0.41571991	         -1.39438947	
          5.85000000	          0.36171267	         -0.44485198	         -1.36921840	
          5.86000000	          0.38148074	         -0.61680282	         -1.27643160	
          5.87000000	          0.40254181	         -0.91230503	         -1.12176951	
          5.88000000	          0.42346186	         -1.32303508	         -0.91242907	
          5.89000000	          0.44561295	         -1.83196856	         -0.66270116	
          5.90000000	          0.45917688	         -2.24598384	         -0.45632626	
          5.91000000	          0.43170989	         -2.47796284	         -0.31909626	
          5.92000000	          0.42694711	         -2.57409770	         -0.22548502	
          5.93000000	          0.40195597	         -2.48269199	         -0.20642834	
          5.94000000	          0.36548768	         -2.25178515	         -0.21939559	
